<svg width="16818" height="15612" viewBox="0 0 16818 15612" fill="none" xmlns="http://www.w3.org/2000/svg">
<path d="M8000.95 35.5753C7871.91 54.5432 7666.41 92.4792 7546.93 120.931C7427.46 144.641 7312.76 168.351 7293.64 173.093C7269.75 173.093 7264.97 192.061 7279.3 215.771C7293.64 239.481 7236.29 291.643 7150.27 334.321C7069.02 372.257 7030.79 410.193 7069.02 410.193C7169.38 414.935 5874.25 979.232 5759.55 979.232C5745.21 979.232 5496.7 1088.3 5214.73 1225.82C4827.62 1410.75 4588.67 1567.24 4244.57 1861.24C3991.28 2079.37 3771.44 2245.34 3761.88 2235.86C3752.33 2221.63 3637.63 2335.44 3508.59 2487.19C3379.56 2634.19 3326.99 2714.8 3393.89 2662.64C3456.02 2610.48 3537.27 2539.35 3565.94 2501.41C3599.4 2463.48 3637.63 2444.51 3656.74 2458.73C3694.98 2501.41 3537.27 2733.77 3355.66 2899.74C3269.64 2980.35 3197.95 3070.45 3197.95 3103.64C3197.95 3132.1 3174.06 3160.55 3150.16 3160.55C3121.49 3160.55 3078.47 3207.97 3054.58 3264.87C3025.9 3326.52 2987.67 3407.13 2963.77 3445.07C2944.66 3483 2815.62 3729.59 2686.59 3990.4C2552.77 4251.21 2428.52 4459.85 2404.62 4455.11C2380.72 4450.37 2361.61 4535.73 2356.83 4649.53C2352.05 4839.21 2261.25 5090.54 2213.46 5043.12C2199.12 5028.89 2213.46 4924.57 2246.91 4815.5C2280.36 4701.7 2309.04 4540.47 2313.82 4464.6C2323.38 4270.17 2634.02 3653.72 2863.41 3359.71C2963.77 3236.42 2982.89 3160.55 2920.76 3160.55C2901.65 3160.55 2782.17 3336 2653.13 3544.65C2509.76 3786.49 2409.4 3909.78 2385.5 3871.85C2361.61 3833.91 2342.49 3838.65 2323.38 3895.56C2304.26 3938.23 2309.04 3957.2 2337.71 3942.98C2423.74 3890.81 2390.28 4014.11 2246.91 4255.95C2165.66 4402.95 2098.76 4474.08 2084.42 4431.4C2065.3 4388.72 2055.75 4393.47 2055.75 4445.63C2050.97 4488.31 2017.51 4549.95 1979.28 4583.15C1941.05 4616.34 1907.59 4677.99 1907.59 4720.66C1902.81 4763.34 1874.14 4858.18 1835.91 4938.79L1769 5081.05L1797.67 4915.09C1812.01 4824.99 1864.58 4635.31 1907.59 4502.53C2003.18 4222.75 1960.16 4113.69 1859.8 4369.76C1821.57 4459.85 1769 4535.73 1735.55 4535.73C1668.64 4535.73 1663.86 4545.21 1448.8 5209.09C1358 5493.61 1262.41 5721.22 1243.3 5721.22C1133.38 5721.22 1334.1 4976.73 1687.75 4094.72C1778.56 3867.1 1835.91 3682.17 1816.79 3682.17C1802.45 3682.17 1735.55 3743.81 1668.64 3824.43C1520.49 3999.88 1463.14 4009.36 1530.04 3843.39C1606.51 3639.49 1549.16 3663.2 1453.58 3871.85C1405.79 3976.17 1348.44 4061.53 1324.54 4061.53C1252.86 4061.53 1286.31 3791.23 1381.89 3582.59C1568.28 3170.03 1463.14 3193.74 1267.19 3606.3C1152.5 3838.65 1047.36 4009.36 1033.02 3980.91C1013.9 3952.46 1052.13 3829.17 1114.26 3701.14C1238.52 3445.07 1319.76 3212.71 1262.41 3264.87C1152.5 3369.2 712.818 4568.92 746.272 4663.76C765.388 4715.92 755.83 4730.15 722.376 4706.44C684.143 4682.73 674.585 4696.95 693.702 4749.12C712.818 4791.79 684.143 4886.63 626.794 4957.76C574.224 5033.63 512.096 5175.89 497.758 5275.48C478.642 5379.8 426.072 5583.71 373.502 5735.45C325.711 5882.45 263.582 6204.91 239.687 6446.75C182.338 7030.01 201.454 8419.42 268.362 8542.71C301.815 8594.87 344.827 8722.91 373.502 8827.23C459.526 9182.88 655.469 9870.47 693.702 9960.57C717.597 10022.2 712.818 10041.2 674.585 10022.2C645.911 10003.2 598.12 9908.4 564.666 9808.82C531.212 9713.98 478.642 9590.69 449.967 9538.53C301.815 9310.91 187.117 8741.87 91.5348 7760.28C24.6274 7110.63 5.51096 7101.14 0.731856 7698.63C-4.04725 8300.87 72.4184 8917.33 172.779 9073.81C211.012 9130.72 230.129 9216.07 215.791 9268.23C187.117 9358.33 330.49 9832.53 516.875 10249.8C1056.91 11454.3 1716.43 12312.6 2882.53 13308.4C3126.26 13517.1 3350.88 13735.2 3384.34 13796.8C3413.01 13853.7 3542.05 13967.5 3666.3 14052.9C3790.56 14133.5 4115.54 14356.4 4392.73 14541.3C5076.14 15006 5267.3 15077.2 5764.33 15053.5C5979.39 15044 6180.11 15010.8 6218.34 14982.3C6294.81 14920.7 6543.32 14873.3 6543.32 14920.7C6543.32 14939.7 6629.35 14939.7 6734.49 14915.9C6959.1 14863.8 7384.44 14574.5 7427.46 14441.7C7446.57 14389.6 7508.7 14294.7 7575.61 14223.6C7637.74 14157.2 7718.98 14000.7 7752.43 13882.2C7819.34 13659.3 7809.78 13261 7738.1 13261C7714.2 13261 7632.96 13147.2 7551.71 13004.9C7408.34 12763.1 7073.8 12412.2 6825.29 12250.9C6763.16 12208.3 6610.23 12165.6 6495.53 12156.1C6376.05 12146.6 6204.01 12094.5 6108.42 12037.6C5936.38 11942.7 5931.6 11942.7 5955.49 12032.8C5979.39 12113.4 5969.83 12118.2 5855.13 12075.5C5783.44 12051.8 5663.97 12028.1 5597.06 12028.1C5525.37 12028.1 5410.67 11990.1 5348.55 11942.7C5281.64 11900 5152.6 11838.4 5061.8 11805.2L4894.53 11748.3L5033.13 11866.8C5286.42 12089.7 5123.93 12032.8 4598.23 11724.6C4473.97 11653.5 4306.7 11587.1 4235.02 11582.3C4144.21 11577.6 4077.31 11534.9 4039.07 11468.5C4005.62 11411.6 3967.39 11373.7 3953.05 11387.9C3895.7 11444.8 3537.27 11037 3393.89 10752.5C3293.53 10562.8 3221.85 10472.7 3178.83 10491.7C3140.6 10505.9 3083.25 10449 3030.68 10335.2C2982.89 10235.6 2920.76 10126.5 2892.09 10088.6C2820.4 9998.5 2624.46 9401.01 2657.91 9372.56C2672.25 9358.33 2696.15 9372.56 2705.7 9405.75C2715.26 9438.95 2777.39 9533.79 2839.52 9619.14C2906.43 9704.5 2978.11 9827.79 3006.79 9889.44C3035.46 9951.08 3116.71 10074.4 3188.39 10159.7C3260.08 10245.1 3355.66 10363.6 3403.45 10425.3C3484.7 10529.6 3484.7 10529.6 3403.45 10392.1C3360.44 10311.5 3283.97 10197.7 3236.18 10136C3140.6 10008 3121.49 9917.89 3207.51 9970.05C3236.18 9989.02 3226.63 9955.82 3183.61 9889.44C3083.25 9751.92 3083.25 9704.5 3174.06 9704.5C3212.29 9704.5 3245.74 9723.47 3245.74 9747.18C3245.74 9799.34 3647.19 10344.7 3833.57 10543.8C3914.82 10629.2 4043.85 10709.8 4125.1 10728.8C4206.34 10743 4335.38 10790.4 4407.06 10828.3C4646.02 10946.9 4655.58 10866.3 4421.4 10705.1C4120.32 10501.2 3699.76 10079.1 3599.4 9884.69L3518.15 9728.21L3651.97 9860.98C3728.43 9932.11 3809.68 9984.28 3838.35 9974.79C3867.02 9960.57 3933.93 9989.02 3981.72 10031.7C4067.75 10102.8 4067.75 10102.8 4015.18 10003.2C3986.5 9946.34 3924.37 9879.95 3876.58 9851.5C3833.57 9827.79 3809.68 9789.85 3828.79 9770.89C3847.91 9756.66 3781 9647.59 3680.64 9533.79C3326.99 9130.72 3121.49 8628.07 2959 7746.05C2882.53 7328.76 2963.77 7205.47 3049.8 7603.8C3083.25 7755.54 3121.49 7897.8 3126.26 7926.25C3135.82 7949.96 3126.26 7736.57 3111.93 7452.05C3092.81 7162.79 3078.47 6816.62 3078.47 6679.11C3078.47 6546.33 3064.14 6432.52 3045.02 6432.52C3021.12 6432.52 3006.79 6394.59 3006.79 6351.91C3006.79 6276.04 3002.01 6276.04 2949.44 6351.91C2853.86 6475.2 2753.49 6385.1 2796.51 6214.39L2834.74 6076.87L2872.97 6195.42C2896.87 6276.04 2901.65 6233.36 2887.31 6067.39C2877.75 5929.87 2887.31 5806.58 2906.43 5792.35C2930.32 5782.87 2973.33 5645.35 3011.57 5488.87C3045.02 5332.38 3092.81 5218.57 3111.93 5228.06C3135.82 5242.28 3140.6 5199.6 3121.49 5133.22C3102.37 5057.34 3111.93 5009.92 3140.6 5009.92C3169.28 5009.92 3207.51 4967.25 3221.85 4915.09C3240.96 4862.92 3274.42 4829.73 3298.31 4843.96C3322.21 4858.18 3355.66 4782.31 3370 4677.99C3398.67 4493.05 3575.5 4203.79 3580.28 4331.82C3580.28 4431.4 3675.86 4402.95 3718.87 4284.4C3742.77 4227.5 3819.23 4099.46 3886.14 3999.88C3953.05 3905.04 4053.41 3715.36 4110.76 3587.33C4168.11 3459.29 4230.24 3359.71 4249.35 3373.94C4268.47 3388.16 4297.14 3350.23 4311.48 3293.32C4330.6 3236.42 4354.49 3203.23 4373.61 3222.19C4392.73 3236.42 4445.3 3184.26 4488.31 3098.9C4531.32 3018.29 4617.34 2942.42 4669.91 2932.93C4727.26 2923.45 4784.61 2871.29 4803.73 2814.38C4818.07 2757.48 4899.31 2638.93 4980.56 2553.57C5100.03 2435.02 5109.59 2401.83 5042.68 2401.83C4999.67 2401.83 4908.87 2458.73 4841.96 2529.86C4655.58 2729.03 4650.8 2615.22 4841.96 2397.09C4937.54 2283.28 5014.01 2174.21 5009.23 2145.76C5009.23 2117.31 4994.89 2122.05 4980.56 2150.5C4971 2183.7 4927.99 2212.15 4889.75 2212.15C4846.74 2212.15 4832.4 2188.44 4851.52 2150.5C4870.64 2122.05 4832.4 2145.76 4765.5 2212.15C4698.59 2278.54 4488.31 2477.7 4297.14 2662.64C4096.42 2852.32 3905.26 3094.16 3843.13 3226.94C3781 3354.97 3709.31 3473.52 3690.2 3487.75C3666.3 3501.97 3575.5 3615.78 3484.7 3739.07C3398.67 3867.1 3317.43 3966.69 3307.87 3966.69C3260.08 3966.69 3317.43 3857.62 3518.15 3587.33C3642.41 3416.62 3704.54 3307.55 3661.52 3345.49C3618.51 3378.68 3580.28 3388.16 3580.28 3359.71C3580.28 3293.32 3704.54 3203.23 3742.77 3245.9C3761.88 3264.87 3771.44 3255.39 3761.88 3226.94C3742.77 3151.06 4158.55 2653.15 4736.82 2069.89C5128.71 1671.56 5300.76 1538.79 5587.5 1391.78C5783.44 1296.95 6103.64 1130.98 6290.03 1026.65C6481.19 922.328 6677.14 836.972 6724.93 836.972C6772.72 836.972 6830.07 818.004 6853.96 794.294C6882.64 770.584 6978.22 737.39 7069.02 723.164C7226.73 689.97 7231.51 694.712 7145.49 765.842C7092.92 803.778 7026.01 836.972 6992.56 836.972C6963.88 836.972 6911.31 865.424 6882.64 903.36C6834.85 960.264 6844.41 969.748 6935.21 946.038C7026.01 927.07 7030.79 931.812 6973.44 979.232C6916.09 1026.65 6925.65 1026.65 7021.23 1002.94C7088.14 983.974 7193.28 960.264 7260.19 946.038C7374.89 922.328 7374.89 922.328 7284.08 988.716C7178.94 1064.59 7006.89 1130.98 6701.03 1211.59C6586.33 1244.78 6495.53 1287.46 6495.53 1315.91C6495.53 1339.62 6447.74 1382.3 6390.39 1406.01C6290.03 1443.95 6290.03 1448.69 6376.05 1448.69C6428.62 1448.69 6567.22 1410.75 6681.92 1358.59C6796.61 1306.43 6920.87 1263.75 6959.1 1263.75C7021.23 1263.75 7021.23 1277.98 6954.32 1382.3C6911.31 1448.69 6892.2 1505.59 6911.31 1505.59C7040.35 1524.56 7107.26 1519.82 7236.29 1486.62C7317.54 1467.66 7413.12 1439.2 7451.35 1429.72C7489.58 1424.98 7618.62 1387.04 7738.1 1358.59C7986.61 1287.46 8464.52 1249.53 8359.38 1306.43C8321.15 1325.4 8158.66 1368.08 8000.95 1401.27C7843.24 1434.46 7647.29 1491.37 7570.83 1524.56C7489.58 1562.5 7374.89 1614.66 7307.98 1643.11C7241.07 1666.82 7126.37 1733.21 7045.13 1785.37C6968.66 1832.79 6806.17 1922.89 6686.69 1984.53C6572 2046.18 6361.72 2159.99 6218.34 2240.6C6079.75 2325.96 5926.82 2382.86 5883.81 2368.64C5793 2344.93 5644.85 2477.7 5697.42 2529.86C5716.54 2544.09 5702.2 2591.51 5668.75 2634.19C5640.07 2672.12 5687.86 2653.15 5778.67 2586.77C5979.39 2439.77 7269.75 1832.79 7370.11 1832.79C7413.12 1832.79 7456.13 1813.82 7470.47 1790.11C7484.8 1771.14 7566.05 1737.95 7652.07 1723.72C7738.1 1704.76 7962.71 1662.08 8144.32 1619.4C8627.01 1515.08 9429.9 1519.82 10008.2 1633.63C10567.3 1747.43 11226.8 1984.53 11465.8 2159.99C11685.6 2321.22 11800.3 2392.35 11938.9 2449.25C12058.4 2501.41 12851.7 3283.84 12851.7 3345.49C12851.7 3369.2 12918.6 3459.29 12995.1 3544.65C13076.4 3634.75 13152.8 3758.04 13167.2 3824.43C13186.3 3890.81 13243.6 4014.11 13291.4 4099.46C13425.2 4317.59 13664.2 4962.5 13850.6 5602.67C13984.4 6067.39 14065.6 7048.98 14027.4 7736.57C14008.3 8044.8 13984.4 8315.09 13970 8334.06C13960.5 8353.03 13941.4 8452.61 13927 8556.94C13912.7 8666 13879.2 8808.26 13855.3 8879.39C13826.7 8950.52 13783.7 9097.52 13759.8 9211.33C13716.8 9391.53 13506.5 9860.98 13248.4 10325.7C12933 10899.5 12039.3 11900 11499.2 12284.1C11403.7 12350.5 11403.7 12355.3 11489.7 12326.8C11733.4 12255.7 10892.3 12914.8 10380.9 13194.6C10079.9 13365.3 9955.6 13469.6 10223.2 13332.1C10390.5 13246.8 10481.3 13242 10433.5 13317.9C10414.4 13351.1 10419.2 13355.8 10457.4 13336.9C10486.1 13317.9 10500.4 13280 10486.1 13256.2C10471.7 13232.5 10486.1 13227.8 10519.5 13237.3C10557.8 13251.5 10634.2 13208.8 10696.4 13147.2C10758.5 13080.8 10930.5 12990.7 11078.7 12948C11226.8 12900.6 11418 12810.5 11504 12748.9C11590.1 12682.5 11671.3 12644.5 11685.6 12658.8C11723.9 12696.7 10878 13313.2 10643.8 13412.7C10567.3 13445.9 10510 13498.1 10510 13531.3C10510 13607.2 10801.5 13488.6 11011.8 13327.4C11097.8 13265.7 11198.2 13213.6 11241.2 13213.6C11284.2 13213.6 11332 13189.9 11346.3 13166.2C11403.7 13071.3 12177.9 12625.6 12216.1 12663.5C12225.7 12673 12068 12791.5 11862.5 12929.1C11657 13066.6 11470.6 13204.1 11441.9 13237.3C11384.6 13303.7 11073.9 13502.8 10725 13697.3L10486.1 13830L10653.3 13815.8C10892.3 13792.1 11370.2 13635.6 11523.1 13536C11590.1 13488.6 11671.3 13450.7 11700 13450.7C11723.9 13450.7 11867.2 13355.8 12005.8 13242C12302.1 13004.9 12565 12857.9 12565 12929.1C12565 12952.8 12531.5 12976.5 12493.3 12976.5C12459.8 12976.5 12407.3 13004.9 12388.2 13042.9C12311.7 13170.9 11446.7 13768.4 11035.7 13977C10796.7 14095.6 10505.2 14327.9 10543.4 14365.9C10553 14380.1 10428.7 14456 10261.5 14536.6C9683.19 14821.1 10223.2 14645.7 10930.5 14323.2C11193.4 14204.6 11351.1 14176.2 11298.5 14256.8C11246 14342.2 11389.3 14309 11561.4 14195.2C11652.2 14133.5 11848.1 14024.5 11991.5 13953.3C12134.9 13877.5 12268.7 13796.8 12283 13773.1C12302.1 13739.9 12326 13744.7 12345.2 13777.9C12383.4 13839.5 12087.1 14057.6 11623.5 14313.7C11432.3 14418 11274.6 14512.9 11274.6 14522.4C11274.6 14617.2 12727.5 13739.9 13038.1 13450.7C13124.1 13370.1 13210.2 13317.9 13229.3 13332.1C13243.6 13351.1 13205.4 13403.3 13138.5 13450.7C13047.7 13521.8 13038.1 13545.5 13100.2 13545.5C13143.3 13545.5 13267.5 13460.2 13372.7 13355.8C13477.8 13251.5 13582.9 13166.2 13602.1 13166.2C13673.7 13166.2 14361.9 12473.8 14514.9 12246.2C14600.9 12122.9 14686.9 12032.8 14701.2 12047C14720.4 12061.3 14672.6 12156.1 14605.7 12250.9C14452.7 12464.3 13936.6 13061.8 13903.1 13066.6C13888.8 13071.3 13707.2 13237.3 13496.9 13436.4C13286.6 13635.6 13152.8 13773.1 13200.6 13735.2C13243.6 13702 13296.2 13687.8 13315.3 13706.7C13329.6 13721 13334.4 13739.9 13324.9 13749.4C13315.3 13754.2 13186.3 13858.5 13042.9 13977C12713.1 14247.3 12120.5 14636.2 12039.3 14636.2C12001.1 14636.2 11929.4 14678.8 11876.8 14726.3C11819.4 14773.7 11604.4 14901.7 11394.1 15010.8C11183.8 15115.1 11050 15205.2 11097.8 15205.2C11145.6 15205.2 11403.7 15096.1 11671.3 14968.1C11938.9 14835.3 12182.7 14731 12216.1 14731C12249.6 14731 12330.8 14674.1 12397.7 14607.7C12469.4 14536.6 12550.7 14498.7 12593.7 14512.9C12636.7 14527.1 12708.4 14517.6 12760.9 14493.9C12808.7 14465.5 12851.7 14460.7 12851.7 14479.7C12847 14531.8 12340.4 14821.1 11919.8 15010.8C11604.4 15157.8 10839.7 15423.3 10404.8 15537.1C10051.2 15632 10251.9 15636.7 10634.2 15546.6C10844.5 15494.5 11093 15437.6 11193.4 15418.6C11293.7 15404.4 11451.5 15347.5 11542.3 15300C11633.1 15247.9 11790.8 15191 11895.9 15176.8C12001.1 15157.8 12087.1 15119.9 12087.1 15091.4C12087.1 15025 12354.7 14920.7 12531.5 14920.7C12612.8 14920.7 12684.5 14878 12732.3 14806.9C12775.3 14745.2 12870.9 14683.6 12942.5 14669.4C13019 14650.4 13090.7 14603 13100.2 14550.8C13114.6 14503.4 13210.2 14422.8 13310.5 14375.4C13563.8 14256.8 13807.6 14067.1 13807.6 13991.3C13807.6 13953.3 13855.3 13924.9 13917.5 13924.9C14032.2 13924.9 14605.7 13417.5 14586.5 13332.1C14577 13303.7 14691.7 13156.7 14839.8 13000.2C14988 12843.7 15174.4 12620.8 15255.6 12502.3C15336.9 12383.7 15413.3 12279.4 15432.5 12265.2C15470.7 12232 15838.7 11601.3 15886.5 11482.7C15905.6 11430.6 15919.9 11359.5 15915.1 11321.5C15910.4 11288.3 15943.8 11212.5 15996.4 11155.5C16049 11103.4 16168.4 10866.3 16264 10629.2C16436.1 10202.4 16479.1 10045.9 16383.5 10178.7C16340.5 10235.6 16335.7 10230.9 16364.4 10155C16383.5 10102.8 16426.5 9898.92 16464.7 9704.5C16503 9510.08 16565.1 9249.27 16608.1 9125.97C16646.3 9002.68 16718 8661.26 16761 8367.26C16837.5 7859.86 16837.5 7551.63 16756.3 6930.43C16741.9 6826.11 16718 6570.04 16698.9 6366.14C16660.7 5882.45 16440.8 4919.83 16244.9 4369.76C16087.2 3924.01 15657.1 3042 15456.3 2743.25C15389.4 2648.41 15284.3 2491.93 15217.4 2401.83C15150.5 2311.73 15045.3 2159.99 14983.2 2069.89C14921.1 1979.79 14749 1785.37 14600.9 1643.11C14452.7 1500.85 14333.3 1363.33 14333.3 1334.88C14333.3 1292.2 14123 1183.14 13888.8 1102.52C13836.2 1088.3 13788.4 1031.39 13774.1 979.232C13759.8 927.07 13726.3 898.618 13702.4 912.844C13678.5 931.812 13688.1 974.49 13726.3 1017.17C13764.5 1064.59 13807.6 1126.23 13826.7 1159.43C13884 1254.27 13535.1 1187.88 13415.7 1074.07C13358.3 1021.91 13277.1 979.232 13234.1 979.232C13191.1 979.232 13062 917.586 12942.5 846.456C12694 689.97 12407.3 552.452 12330.8 552.452C12302.1 552.452 12278.2 538.226 12278.2 514.516C12278.2 495.548 12220.9 452.871 12149.2 424.419L12025 362.773L12134.9 481.322C12197 547.71 12421.6 699.454 12636.7 822.746C12980.8 1021.91 13592.5 1505.59 13592.5 1586.21C13592.5 1605.17 13697.6 1723.72 13826.7 1856.5C14041.7 2079.37 14763.4 3212.71 14763.4 3321.78C14763.4 3350.23 14696.5 3260.13 14615.2 3127.35C14534 2989.84 14376.3 2790.67 14256.8 2676.86C14142.1 2567.8 14051.3 2449.25 14060.8 2411.31C14065.6 2373.38 14032.2 2335.44 13989.2 2330.7C13941.4 2321.22 13783.7 2197.92 13630.7 2050.92C13243.6 1685.79 12545.9 1168.91 12431.2 1168.91C12412.1 1168.91 12349.9 1126.23 12292.6 1078.81C12144.4 936.554 11231.6 524 10796.7 395.967C9659.3 59.2852 8670.02 -68.7486 8000.95 35.5753ZM9778.77 462.355C10395.3 599.872 10581.7 661.518 10921 818.004C11121.7 908.102 11317.6 974.49 11355.9 960.264C11523.1 893.876 12235.2 1330.14 12751.4 1813.82C13052.5 2098.34 13023.8 2150.5 12703.6 1913.4C12455.1 1733.21 12001.1 1453.43 11948.5 1453.43C11929.4 1453.43 11829 1391.78 11723.9 1311.17C11623.5 1235.3 11518.4 1168.91 11494.5 1168.91C11470.6 1168.91 11413.2 1140.46 11375 1102.52C11265.1 1007.68 10318.8 742.132 10075.1 742.132C9950.82 742.132 9764.44 689.97 9625.84 623.582C9477.69 552.452 9296.08 505.032 9147.93 500.29C9018.9 495.548 8856.41 476.581 8789.5 457.613C8603.11 395.967 9515.92 400.709 9778.77 462.355ZM6524.21 813.262C6471.64 851.198 6419.07 870.166 6404.73 855.94C6376.05 827.488 6495.53 742.132 6567.22 742.132C6595.89 746.874 6572 775.326 6524.21 813.262ZM6266.13 931.812C6208.78 983.974 6137.1 1026.65 6103.64 1026.65C6070.19 1026.65 5998.5 1059.85 5950.71 1097.78C5898.14 1135.72 5821.68 1168.91 5783.44 1168.91C5745.21 1168.91 5807.34 1107.27 5926.82 1036.14C6261.35 822.746 6442.96 770.584 6266.13 931.812ZM13425.2 2401.83C13453.9 2453.99 13458.7 2496.67 13434.8 2496.67C13387 2496.67 13281.9 2397.09 13281.9 2344.93C13281.9 2269.05 13372.7 2306.99 13425.2 2401.83ZM12541.1 2638.93C12670.1 2766.96 12756.2 2876.03 12727.5 2876.03C12703.6 2876.03 12574.5 2766.96 12445.5 2638.93C12316.5 2506.15 12230.5 2401.83 12259.1 2401.83C12283 2401.83 12412.1 2506.15 12541.1 2638.93ZM13033.3 3113.13C13066.8 3165.29 13076.4 3207.97 13052.5 3207.97C13033.3 3207.97 12990.3 3165.29 12956.9 3113.13C12923.4 3060.97 12913.9 3018.29 12937.8 3018.29C12956.9 3018.29 12999.9 3060.97 13033.3 3113.13ZM3938.71 3781.75C3895.7 3862.36 3847.91 3919.27 3838.35 3905.04C3804.9 3871.85 3924.37 3634.75 3972.17 3634.75C3996.06 3634.75 3976.94 3701.14 3938.71 3781.75ZM3207.51 3928.75C3150.16 4014.11 3073.69 4156.37 3030.68 4246.46C2992.45 4336.56 2944.66 4393.47 2930.32 4379.24C2892.09 4346.05 3002.01 4061.53 3049.8 4061.53C3068.91 4061.53 3121.49 3985.65 3169.28 3890.81C3212.29 3795.97 3260.08 3729.59 3279.2 3743.81C3293.53 3758.04 3260.08 3843.39 3207.51 3928.75ZM3293.53 4061.53C3293.53 4085.24 3269.64 4108.95 3240.96 4108.95C3217.07 4108.95 3207.51 4085.24 3221.85 4061.53C3236.18 4033.07 3260.08 4014.11 3274.42 4014.11C3283.97 4014.11 3293.53 4033.07 3293.53 4061.53ZM1573.06 4123.17C1573.06 4156.37 1525.27 4208.53 1472.7 4246.46C1381.89 4298.63 1372.33 4298.63 1401.01 4227.5C1415.35 4184.82 1429.68 4127.91 1429.68 4104.2C1429.68 4080.49 1463.14 4061.53 1501.37 4061.53C1539.6 4061.53 1573.06 4089.98 1573.06 4123.17ZM1769 5261.25C1730.77 5299.19 1716.43 5294.44 1716.43 5242.28C1716.43 5147.44 1778.56 5081.05 1802.45 5152.18C1816.79 5185.38 1797.67 5232.8 1769 5261.25ZM1639.96 5597.93C1625.63 5669.06 1601.73 5716.48 1587.39 5707C1577.84 5692.77 1582.61 5626.38 1601.73 5560C1616.07 5488.87 1639.96 5441.45 1654.3 5450.93C1663.86 5465.16 1659.08 5531.54 1639.96 5597.93ZM1764.22 8428.9C1764.22 8542.71 1745.1 8609.1 1716.43 8590.13C1692.53 8575.9 1668.64 8476.32 1668.64 8372C1668.64 8258.19 1687.75 8191.8 1716.43 8210.77C1745.1 8225 1764.22 8324.58 1764.22 8428.9ZM3054.58 8618.58C3054.58 8647.03 3035.46 8651.78 3006.79 8637.55C2982.89 8623.32 2959 8585.39 2959 8561.68C2959 8533.23 2982.89 8528.48 3006.79 8542.71C3035.46 8556.94 3054.58 8594.87 3054.58 8618.58ZM3245.74 8950.52C3274.42 9002.68 3288.75 9083.3 3279.2 9125.97C3264.86 9197.1 3255.3 9192.36 3226.63 9111.75C3207.51 9059.59 3169.28 8978.97 3145.38 8931.55C3116.71 8879.39 3116.71 8850.94 3150.16 8850.94C3174.06 8850.94 3217.07 8893.62 3245.74 8950.52ZM712.818 10382.6C712.818 10406.3 693.702 10406.3 665.027 10392.1C641.131 10377.9 617.236 10325.7 617.236 10283C617.236 10211.9 626.794 10211.9 665.027 10273.5C688.922 10311.5 712.818 10363.6 712.818 10382.6ZM13238.8 11710.4C13191.1 11753 13186.3 11748.3 13214.9 11681.9C13229.3 11634.5 13258 11610.8 13272.3 11625C13286.6 11639.2 13272.3 11677.2 13238.8 11710.4ZM13186.3 11805.2C13186.3 11814.7 13138.5 11862.1 13085.9 11914.3C12980.8 12004.4 12980.8 12004.4 13038.1 11895.3C13085.9 11809.9 13186.3 11748.3 13186.3 11805.2ZM12072.7 12298.4C11924.6 12450.1 11795.6 12559.2 11781.2 12545C11766.9 12535.5 11876.8 12397.9 12020.2 12246.2C12163.5 12089.7 12292.6 11980.7 12311.7 11999.6C12330.8 12018.6 12225.7 12151.4 12072.7 12298.4ZM12803.9 12194C12741.8 12260.4 12670.1 12312.6 12641.5 12312.6C12617.6 12312.6 12655.8 12250.9 12732.3 12170.3C12808.7 12094.5 12880.4 12037.6 12890 12051.8C12904.3 12066 12866.1 12127.7 12803.9 12194ZM12493.3 12454.9C12445.5 12507 12383.4 12549.7 12359.5 12549.7C12330.8 12549.7 12349.9 12507 12397.7 12454.9C12445.5 12402.7 12507.6 12360 12531.5 12360C12560.2 12360 12541.1 12402.7 12493.3 12454.9ZM13401.3 13261C13387 13284.7 13348.8 13308.4 13324.9 13308.4C13296.2 13308.4 13291.4 13284.7 13305.8 13261C13320.1 13232.5 13358.3 13213.6 13382.2 13213.6C13410.9 13213.6 13415.7 13232.5 13401.3 13261ZM13425.2 13640.4C13425.2 13664.1 13406.1 13687.8 13377.4 13687.8C13353.5 13687.8 13329.6 13664.1 13329.6 13640.4C13329.6 13611.9 13353.5 13592.9 13377.4 13592.9C13406.1 13592.9 13425.2 13611.9 13425.2 13640.4ZM6194.45 14949.1C6180.11 14963.4 6137.1 14968.1 6103.64 14953.9C6065.41 14939.7 6079.75 14925.4 6132.32 14925.4C6184.89 14920.7 6213.56 14934.9 6194.45 14949.1Z" fill="black"/>
</svg>
